<svg id="visual" viewBox="0 0 900 600" width="900" height="600" xmlns="http://www.w3.org/2000/svg" xmlns:xlink="http://www.w3.org/1999/xlink" version="1.1"><path d="M0 55L13.7 64C27.3 73 54.7 91 82 95C109.3 99 136.7 89 163.8 92C191 95 218 111 245.2 120C272.3 129 299.7 131 327 125C354.3 119 381.7 105 409 94C436.3 83 463.7 75 491 70C518.3 65 545.7 63 573 69C600.3 75 627.7 89 654.8 86C682 83 709 63 736.2 57C763.3 51 790.7 59 818 68C845.3 77 872.7 87 886.3 92L900 97L900 0L886.3 0C872.7 0 845.3 0 818 0C790.7 0 763.3 0 736.2 0C709 0 682 0 654.8 0C627.7 0 600.3 0 573 0C545.7 0 518.3 0 491 0C463.7 0 436.3 0 409 0C381.7 0 354.3 0 327 0C299.7 0 272.3 0 245.2 0C218 0 191 0 163.8 0C136.7 0 109.3 0 82 0C54.7 0 27.3 0 13.7 0L0 0Z" fill="#74b7f7"></path><path d="M0 205L13.7 215C27.3 225 54.7 245 82 239C109.3 233 136.7 201 163.8 202C191 203 218 237 245.2 251C272.3 265 299.7 259 327 253C354.3 247 381.7 241 409 220C436.3 199 463.7 163 491 159C518.3 155 545.7 183 573 202C600.3 221 627.7 231 654.8 228C682 225 709 209 736.2 192C763.3 175 790.7 157 818 158C845.3 159 872.7 179 886.3 189L900 199L900 95L886.3 90C872.7 85 845.3 75 818 66C790.7 57 763.3 49 736.2 55C709 61 682 81 654.8 84C627.7 87 600.3 73 573 67C545.7 61 518.3 63 491 68C463.7 73 436.3 81 409 92C381.7 103 354.3 117 327 123C299.7 129 272.3 127 245.2 118C218 109 191 93 163.8 90C136.7 87 109.3 97 82 93C54.7 89 27.3 71 13.7 62L0 53Z" fill="#52a7f5"></path><path d="M0 289L13.7 319C27.3 349 54.7 409 82 425C109.3 441 136.7 413 163.8 401C191 389 218 393 245.2 408C272.3 423 299.7 449 327 455C354.3 461 381.7 447 409 409C436.3 371 463.7 309 491 302C518.3 295 545.7 343 573 357C600.3 371 627.7 351 654.8 350C682 349 709 367 736.2 358C763.3 349 790.7 313 818 318C845.3 323 872.7 369 886.3 392L900 415L900 197L886.3 187C872.7 177 845.3 157 818 156C790.7 155 763.3 173 736.2 190C709 207 682 223 654.8 226C627.7 229 600.3 219 573 200C545.7 181 518.3 153 491 157C463.7 161 436.3 197 409 218C381.7 239 354.3 245 327 251C299.7 257 272.3 263 245.2 249C218 235 191 201 163.8 200C136.7 199 109.3 231 82 237C54.7 243 27.3 223 13.7 213L0 203Z" fill="#2196f3"></path><path d="M0 385L13.7 408C27.3 431 54.7 477 82 494C109.3 511 136.7 499 163.8 487C191 475 218 463 245.2 468C272.3 473 299.7 495 327 508C354.3 521 381.7 525 409 489C436.3 453 463.7 377 491 370C518.3 363 545.7 425 573 442C600.3 459 627.7 431 654.8 421C682 411 709 419 736.2 408C763.3 397 790.7 367 818 379C845.3 391 872.7 445 886.3 472L900 499L900 413L886.3 390C872.7 367 845.3 321 818 316C790.7 311 763.3 347 736.2 356C709 365 682 347 654.8 348C627.7 349 600.3 369 573 355C545.7 341 518.3 293 491 300C463.7 307 436.3 369 409 407C381.7 445 354.3 459 327 453C299.7 447 272.3 421 245.2 406C218 391 191 387 163.8 399C136.7 411 109.3 439 82 423C54.7 407 27.3 347 13.7 317L0 287Z" fill="#1982d3"></path><path d="M0 601L13.7 601C27.3 601 54.7 601 82 601C109.3 601 136.7 601 163.8 601C191 601 218 601 245.2 601C272.3 601 299.7 601 327 601C354.3 601 381.7 601 409 601C436.3 601 463.7 601 491 601C518.3 601 545.7 601 573 601C600.3 601 627.7 601 654.8 601C682 601 709 601 736.2 601C763.3 601 790.7 601 818 601C845.3 601 872.7 601 886.3 601L900 601L900 497L886.3 470C872.7 443 845.3 389 818 377C790.7 365 763.3 395 736.2 406C709 417 682 409 654.8 419C627.7 429 600.3 457 573 440C545.7 423 518.3 361 491 368C463.7 375 436.3 451 409 487C381.7 523 354.3 519 327 506C299.7 493 272.3 471 245.2 466C218 461 191 473 163.8 485C136.7 497 109.3 509 82 492C54.7 475 27.3 429 13.7 406L0 383Z" fill="#126eb3"></path></svg>